<svg width="64" height="64" viewBox="0 0 64 64" fill="none" xmlns="http://www.w3.org/2000/svg">
  <rect width="64" height="64" rx="18" fill="#020617"></rect>
  <circle cx="32" cy="32" r="22" fill="#10B981" fill-opacity="0.12"></circle>
  <path d="M18 42V20H31C36 20 39.5 23.2 39.5 28C39.5 32.8 36 36 31 36H23.5V42H18ZM23.5 31.5H30.4C32.7 31.5 34 30.2 34 28C34 25.8 32.7 24.5 30.4 24.5H23.5V31.5Z" fill="#A7F3D0"></path>
  <path d="M42 42C38.5 42 35.8 40.6 34 38.3L37.4 35.1C38.6 36.7 40.1 37.6 41.8 37.6C44 37.6 45.2 36.3 45.2 33.8V20H51V34C51 39.2 47.6 42 42 42Z" fill="#38BDF8"></path>
</svg>